<svg width="136" height="37" fill="none" xmlns="http://www.w3.org/2000/svg"><path d="M5.04 15.375c.648-1.07 1.536-1.94 2.664-2.608 1.152-.67 2.46-1.003 3.924-1.003 1.704 0 3.24.468 4.608 1.404 1.392.936 2.484 2.274 3.276 4.012.816 1.712 1.224 3.705 1.224 5.979s-.408 4.293-1.224 6.059c-.792 1.739-1.884 3.09-3.276 4.052-1.368.963-2.904 1.445-4.608 1.445-1.488 0-2.796-.321-3.924-.963a8.122 8.122 0 0 1-2.664-2.568v3.17H0V4.66h5.04v10.714Zm10.548 7.784c0-1.337-.252-2.488-.756-3.45-.48-.99-1.128-1.74-1.944-2.248a4.705 4.705 0 0 0-2.592-.762c-.912 0-1.776.267-2.592.802-.792.509-1.44 1.258-1.944 2.247-.48.99-.72 2.154-.72 3.491 0 1.338.24 2.501.72 3.491.504.99 1.152 1.752 1.944 2.287.816.509 1.68.763 2.592.763.936 0 1.8-.268 2.592-.803.816-.535 1.464-1.297 1.944-2.287.504-.99.756-2.167.756-3.531ZM26.954 9.476c-.888 0-1.632-.307-2.232-.923-.576-.642-.864-1.43-.864-2.367 0-.936.288-1.712.864-2.327.6-.642 1.344-.963 2.232-.963.888 0 1.62.32 2.196.963.6.615.9 1.39.9 2.327 0 .936-.3 1.725-.9 2.367-.576.616-1.308.923-2.196.923Zm2.484 2.649v22.229h-5.04v-22.23h5.04Zm16.788 22.229-6.768-9.47v9.47h-5.04V4.66h5.04v16.893l6.696-9.43h6.552L43.922 23.28l8.856 11.075h-6.552Zm6.919-11.115c0-2.3.42-4.306 1.26-6.018.84-1.74 2.004-3.077 3.492-4.013 1.488-.963 3.192-1.444 5.112-1.444 2.472 0 4.512.695 6.12 2.086 1.632 1.364 2.724 3.29 3.276 5.778H66.97c-.288-.963-.78-1.712-1.476-2.247-.672-.562-1.512-.843-2.52-.843-1.44 0-2.58.589-3.42 1.766-.84 1.15-1.26 2.795-1.26 4.935 0 2.113.42 3.759 1.26 4.936.84 1.15 1.98 1.725 3.42 1.725 2.04 0 3.372-1.016 3.996-3.05h5.436c-.552 2.408-1.644 4.32-3.276 5.738-1.632 1.418-3.672 2.127-6.12 2.127-1.92 0-3.624-.468-5.112-1.404-1.476-.95-2.686-2.34-3.492-4.013-.84-1.739-1.26-3.758-1.26-6.059h-.001Zm26.993-7.664a7.577 7.577 0 0 1 2.52-2.768c1.056-.669 2.256-1.003 3.6-1.003v5.898h-1.332c-1.584 0-2.784.415-3.6 1.244-.792.83-1.188 2.274-1.188 4.333v11.075h-5.04v-22.23h5.04v3.451Zm21.574 15.609c-.552 1.016-1.452 1.872-2.7 2.568a8.407 8.407 0 0 1-4.032 1.003c-1.248 0-2.376-.28-3.384-.843a6.178 6.178 0 0 1-2.376-2.327c-.576-.99-.864-2.126-.864-3.41 0-2.06.684-3.745 2.052-5.056 1.392-1.31 3.468-1.966 6.228-1.966h5.076c-.048-1.418-.42-2.541-1.116-3.37-.672-.857-1.608-1.285-2.808-1.285-1.056 0-1.932.321-2.628.963-.696.616-1.14 1.485-1.332 2.608h-5.04c.24-1.605.756-3.036 1.548-4.293.809-1.277 1.9-2.3 3.168-2.97 1.32-.721 2.796-1.083 4.428-1.083 1.68 0 3.192.388 4.536 1.164 1.335.741 2.448 1.898 3.204 3.33.768 1.445 1.152 3.143 1.152 5.096v13.04h-5.112v-3.169Zm-5.256-.963c.84 0 1.656-.2 2.448-.602.816-.401 1.488-1.003 2.016-1.805.528-.803.792-1.753.792-2.85v-.16h-4.788c-1.152 0-2.016.254-2.592.763-.552.508-.828 1.177-.828 2.006 0 .802.252 1.444.756 1.926.528.481 1.26.722 2.196.722Zm20.997-13.482v17.615h-5.112V16.739h-2.268v-4.614h2.268V11c0-2.728.696-4.735 2.088-6.019 1.392-1.284 3.492-1.886 6.3-1.805V7.91c-1.224-.026-2.076.201-2.556.683-.48.481-.72 1.35-.72 2.608v.923h6.55V6.627h5.076v5.498h4.464v4.614h-4.464v10.753c0 .75.156 1.298.468 1.646.336.32.888.481 1.656.481h2.34v4.735h-3.168c-4.248 0-6.372-2.3-6.372-6.902V16.74h-6.55Z" fill="#fff"/></svg>